<?xml version="1.0" encoding="utf-8" ?>
<svg baseProfile="full" height="256" version="1.1" width="256" xmlns="http://www.w3.org/2000/svg" xmlns:ev="http://www.w3.org/2001/xml-events" xmlns:xlink="http://www.w3.org/1999/xlink"><defs /><polygon fill="#FFD274" points="111.0,44.0 111.0,87.0 164.0,87.0 164.0,44.0" stroke="black" stroke-width="4" /><polygon fill="#FFD274" points="65.0,141.0 65.0,205.0 122.0,205.0 122.0,141.0" stroke="black" stroke-width="4" /><polygon fill="#BEBEBE" points="164.0,57.0 164.0,99.0 185.0,99.0 185.0,57.0" stroke="black" stroke-width="4" /><polygon fill="#BEBEBE" points="111.0,112.0 111.0,141.0 164.0,141.0 164.0,112.0" stroke="black" stroke-width="4" /><polygon fill="#BFE3E8" points="122.0,194.0 122.0,219.0 185.0,219.0 185.0,194.0" stroke="black" stroke-width="4" /><polygon fill="#EE4D4D" points="56.0,57.0 56.0,141.0 121.0,141.0 122.0,142.0 122.0,194.0 185.0,194.0 185.0,141.0 123.0,141.0 122.0,140.0 122.0,113.0 123.0,112.0 164.0,112.0 164.0,87.0 112.0,87.0 111.0,86.0 111.0,57.0" stroke="black" stroke-width="4" /><polygon fill="#727171" points="172.0,139.0 188.0,139.0 188.0,143.0 172.0,143.0" stroke="none" /><polygon fill="#D3A2C7" points="162.0,67.0 166.0,67.0 166.0,83.0 162.0,83.0" stroke="none" /><polygon fill="#D3A2C7" points="108.0,139.0 124.0,139.0 124.0,143.0 108.0,143.0" stroke="none" /><polygon fill="#D3A2C7" points="108.0,85.0 124.0,85.0 124.0,89.0 108.0,89.0" stroke="none" /><polygon fill="#D3A2C7" points="120.0,142.0 124.0,142.0 124.0,158.0 120.0,158.0" stroke="none" /><polygon fill="#D3A2C7" points="120.0,117.0 124.0,117.0 124.0,133.0 120.0,133.0" stroke="none" /><polygon fill="#D3A2C7" points="139.0,192.0 155.0,192.0 155.0,196.0 139.0,196.0" stroke="none" /></svg>