<?xml version="1.0" encoding="utf-8" ?>
<svg baseProfile="full" height="256" version="1.1" width="256" xmlns="http://www.w3.org/2000/svg" xmlns:ev="http://www.w3.org/2001/xml-events" xmlns:xlink="http://www.w3.org/1999/xlink"><defs /><polygon fill="#FFD274" points="78.0,119.0 78.0,179.0 115.0,179.0 115.0,119.0" stroke="black" stroke-width="4" /><polygon fill="#FFD274" points="147.0,126.0 147.0,207.0 197.0,207.0 197.0,126.0" stroke="black" stroke-width="4" /><polygon fill="#BEBEBE" points="46.0,119.0 46.0,165.0 78.0,165.0 78.0,119.0" stroke="black" stroke-width="4" /><polygon fill="#BEBEBE" points="147.0,79.0 147.0,126.0 203.0,126.0 203.0,79.0" stroke="black" stroke-width="4" /><polygon fill="#BFE3E8" points="78.0,179.0 78.0,207.0 147.0,207.0 147.0,179.0" stroke="black" stroke-width="4" /><polygon fill="#EE4D4D" points="46.0,56.0 46.0,119.0 114.0,119.0 115.0,120.0 115.0,179.0 147.0,179.0 147.0,80.0 148.0,79.0 175.0,79.0 175.0,56.0" stroke="black" stroke-width="4" /><polygon fill="#727171" points="173.0,63.0 177.0,63.0 177.0,79.0 173.0,79.0" stroke="none" /><polygon fill="#D3A2C7" points="76.0,150.0 80.0,150.0 80.0,166.0 76.0,166.0" stroke="none" /><polygon fill="#D3A2C7" points="182.0,124.0 198.0,124.0 198.0,128.0 182.0,128.0" stroke="none" /><polygon fill="#D3A2C7" points="113.0,125.0 117.0,125.0 117.0,141.0 113.0,141.0" stroke="none" /><polygon fill="#D3A2C7" points="135.0,124.0 151.0,124.0 151.0,128.0 135.0,128.0" stroke="none" /><polygon fill="#D3A2C7" points="131.0,177.0 147.0,177.0 147.0,181.0 131.0,181.0" stroke="none" /></svg>