<?xml version="1.0" encoding="utf-8" ?>
<svg baseProfile="full" height="256" version="1.1" width="256" xmlns="http://www.w3.org/2000/svg" xmlns:ev="http://www.w3.org/2001/xml-events" xmlns:xlink="http://www.w3.org/1999/xlink"><defs /><polygon fill="#FFD274" points="142.0,62.0 142.0,111.0 191.0,111.0 191.0,62.0" stroke="black" stroke-width="4" /><polygon fill="#FFD274" points="84.0,127.0 84.0,203.0 142.0,203.0 142.0,127.0" stroke="black" stroke-width="4" /><polygon fill="#BEBEBE" points="142.0,44.0 142.0,62.0 191.0,62.0 191.0,44.0" stroke="black" stroke-width="4" /><polygon fill="#BEBEBE" points="142.0,127.0 142.0,168.0 178.0,168.0 178.0,127.0" stroke="black" stroke-width="4" /><polygon fill="#BFE3E8" points="60.0,52.0 60.0,79.0 107.0,79.0 107.0,52.0" stroke="black" stroke-width="4" /><polygon fill="#EE4D4D" points="107.0,52.0 107.0,78.0 106.0,79.0 60.0,79.0 60.0,127.0 191.0,127.0 191.0,111.0 143.0,111.0 142.0,110.0 142.0,52.0" stroke="black" stroke-width="4" /><polygon fill="#D3A2C7" points="158.0,60.0 174.0,60.0 174.0,64.0 158.0,64.0" stroke="none" /><polygon fill="#D3A2C7" points="140.0,135.0 144.0,135.0 144.0,151.0 140.0,151.0" stroke="none" /><polygon fill="#D3A2C7" points="176.0,109.0 192.0,109.0 192.0,113.0 176.0,113.0" stroke="none" /><polygon fill="#D3A2C7" points="125.0,125.0 141.0,125.0 141.0,129.0 125.0,129.0" stroke="none" /><polygon fill="#D3A2C7" points="163.0,125.0 179.0,125.0 179.0,129.0 163.0,129.0" stroke="none" /><polygon fill="#D3A2C7" points="105.0,62.0 109.0,62.0 109.0,78.0 105.0,78.0" stroke="none" /></svg>