<?xml version="1.0" encoding="utf-8" ?>
<svg baseProfile="full" height="256" version="1.1" width="256" xmlns="http://www.w3.org/2000/svg" xmlns:ev="http://www.w3.org/2001/xml-events" xmlns:xlink="http://www.w3.org/1999/xlink"><defs /><polygon fill="#FFD274" points="95.0,41.0 95.0,107.0 141.0,107.0 141.0,41.0" stroke="black" stroke-width="4" /><polygon fill="#FFD274" points="115.0,126.0 115.0,203.0 187.0,203.0 187.0,126.0" stroke="black" stroke-width="4" /><polygon fill="#BEBEBE" points="76.0,41.0 76.0,107.0 95.0,107.0 95.0,41.0" stroke="black" stroke-width="4" /><polygon fill="#BEBEBE" points="60.0,107.0 60.0,153.0 115.0,153.0 115.0,107.0" stroke="black" stroke-width="4" /><polygon fill="#BFE3E8" points="60.0,192.0 60.0,219.0 115.0,219.0 115.0,192.0" stroke="black" stroke-width="4" /><polygon fill="#EE4D4D" points="141.0,41.0 141.0,106.0 140.0,107.0 115.0,107.0 115.0,126.0 195.0,126.0 195.0,41.0" stroke="black" stroke-width="4" /><polygon fill="#727171" points="193.0,119.0 197.0,119.0 197.0,135.0 193.0,135.0" stroke="none" /><polygon fill="#D3A2C7" points="93.0,91.0 97.0,91.0 97.0,107.0 93.0,107.0" stroke="none" /><polygon fill="#D3A2C7" points="113.0,136.0 117.0,136.0 117.0,152.0 113.0,152.0" stroke="none" /><polygon fill="#D3A2C7" points="124.0,105.0 140.0,105.0 140.0,109.0 124.0,109.0" stroke="none" /><polygon fill="#D3A2C7" points="117.0,124.0 133.0,124.0 133.0,128.0 117.0,128.0" stroke="none" /><polygon fill="#D3A2C7" points="113.0,108.0 117.0,108.0 117.0,124.0 113.0,124.0" stroke="none" /></svg>