<?xml version="1.0" encoding="utf-8" ?>
<svg baseProfile="full" height="256" version="1.1" width="256" xmlns="http://www.w3.org/2000/svg" xmlns:ev="http://www.w3.org/2001/xml-events" xmlns:xlink="http://www.w3.org/1999/xlink"><defs /><polygon fill="#FFD274" points="59.0,109.0 59.0,151.0 116.0,151.0 116.0,109.0" stroke="black" stroke-width="4" /><polygon fill="#FFD274" points="151.0,135.0 151.0,194.0 199.0,194.0 199.0,135.0" stroke="black" stroke-width="4" /><polygon fill="#FFD274" points="52.0,151.0 52.0,169.0 87.0,169.0 88.0,170.0 88.0,204.0 123.0,204.0 123.0,194.0 117.0,194.0 116.0,193.0 116.0,185.0 117.0,184.0 123.0,184.0 123.0,151.0" stroke="black" stroke-width="4" /><polygon fill="#BEBEBE" points="171.0,109.0 171.0,135.0 199.0,135.0 199.0,109.0" stroke="black" stroke-width="4" /><polygon fill="#E87A90" points="52.0,169.0 52.0,204.0 88.0,204.0 88.0,169.0" stroke="black" stroke-width="4" /><polygon fill="#C67C7B" points="140.0,40.0 140.0,76.0 183.0,76.0 183.0,40.0" stroke="black" stroke-width="4" /><polygon fill="#EE4D4D" points="116.0,76.0 116.0,151.0 122.0,151.0 123.0,152.0 123.0,183.0 122.0,184.0 116.0,184.0 116.0,194.0 151.0,194.0 151.0,136.0 152.0,135.0 171.0,135.0 171.0,110.0 172.0,109.0 183.0,109.0 183.0,76.0" stroke="black" stroke-width="4" /><polygon fill="#BFE3E8" points="116.0,194.0 116.0,219.0 171.0,219.0 171.0,194.0" stroke="black" stroke-width="4" /><polygon fill="#727171" points="57.0,152.0 61.0,152.0 61.0,168.0 57.0,168.0" stroke="none" /><polygon fill="#D3A2C7" points="86.0,168.0 90.0,168.0 90.0,184.0 86.0,184.0" stroke="none" /><polygon fill="#D3A2C7" points="114.0,128.0 118.0,128.0 118.0,144.0 114.0,144.0" stroke="none" /><polygon fill="#D3A2C7" points="153.0,133.0 169.0,133.0 169.0,137.0 153.0,137.0" stroke="none" /><polygon fill="#D3A2C7" points="117.0,150.0 133.0,150.0 133.0,154.0 117.0,154.0" stroke="none" /><polygon fill="#D3A2C7" points="169.0,120.0 173.0,120.0 173.0,136.0 169.0,136.0" stroke="none" /><polygon fill="#D3A2C7" points="169.0,74.0 185.0,74.0 185.0,78.0 169.0,78.0" stroke="none" /><polygon fill="#D3A2C7" points="135.0,192.0 151.0,192.0 151.0,196.0 135.0,196.0" stroke="none" /></svg>